<svg id="Schwarz" xmlns="http://www.w3.org/2000/svg" viewBox="0 0 425.2 425.2"><path d="M166.16,202.44a6.18,6.18,0,0,0-3.39,1.55c-7,6.37-14.77,18.69-19.76,28.08-4.84,9.09-8.37,17.94-12.48,28.56a127.38,127.38,0,0,0-7.41,30.61c-1.55,12.07-.82,22.1,2.24,30.64,1.38,3.85,3.13,5.8,5.22,5.8h0c2.23,0,5-2.31,7.82-6.45A49.75,49.75,0,0,0,144.07,310c3.63-10.94,6.26-22.39,8.81-33.46.67-2.93,1.35-5.86,2-8.77,2.58-10.93,5-22.72,7.63-37.14.5-2.72,1.23-6.24,2-10,.89-4.31,1.81-8.77,2.37-12,.05-.28.12-.62.22-1,.35-1.53.94-4.08-.16-4.94A1.34,1.34,0,0,0,166.16,202.44Z"/><path d="M0,0V425.2H425.2V0ZM200.72,345.51a13.72,13.72,0,0,1-10.56,5.39,12.65,12.65,0,0,1-6.15-1.64c-4.4-2.4-5.07-5.77-4.85-8.17.48-5.38,5.93-11.44,12.15-13.51,4-1.32,7.41-.65,9.69,1.89C205.57,334.55,204.15,341.18,200.72,345.51ZM320,82.17c-.45,7.49-14,12-22.12,14.75-1.28.43-2.41.81-3.29,1.14-22.43,8.32-45.56,23.6-57.35,32-.4.29-3.77,3-5.57,4.43-.7.55-1.2,1-1.3,1a186,186,0,0,0-25,22.94,59.37,59.37,0,0,0-13,23.32c-1,3.58-1.76,7.28-2.48,10.87-.38,1.88-.75,3.76-1.17,5.64-.24,1.09-.53,2.25-.83,3.43-1,3.87-2.08,8.25-1.8,12a3.77,3.77,0,0,0,1.44,3.16c1.84,1.16,5.4-.22,7.53-1,5.45-2.12,9.92-3.73,14.09-5.06l2.47-.8c8.16-2.63,17.4-5.62,25.78-5.84a9.38,9.38,0,0,1,8.61,5.45c1.05,2.63.31,5.36-2,7.5-3.49,3.18-8.57,4.72-13.06,6.08-1.06.33-2.11.64-3.1,1-1.93.64-3.85,1.27-5.78,1.89-7.91,2.57-16.09,5.23-23.88,8.6l-1.46.62c-7.64,3.27-15.54,6.66-18.3,14.79-3.42,10.1-5.95,20.9-8.39,31.34-.76,3.25-1.51,6.48-2.29,9.67-13.52,55.49-22.87,60.3-35.6,61.29q-.69.06-1.38.06c-7,0-13-4.26-18-12.69-4.25-7.18-6.91-15.39-8.13-25.09a118.67,118.67,0,0,1,.46-29.87c2.65-20.1,13.42-44.71,21.84-59.68,6.46-11.48,25.66-35.72,32-42.88,1.06-1.2,2.12-2.34,3.16-3.47,4.46-4.82,8.66-9.37,11.32-15.78,3.33-8,4-17.31,4.67-26.3.1-1.39.2-2.77.31-4.13.13-1.54.11-3.32.09-5.2-.06-6-.12-12.77,4.19-16.54a7.47,7.47,0,0,1,7.58-1.67,11,11,0,0,1,6.74,8.13,52.51,52.51,0,0,1,.94,11.54c0,.46-.07,1.07-.12,1.76-.22,2.54-.63,7.26,1.14,7.52.14,0,1,0,3.62-2.41,3.12-2.87,8.34-7.68,16.69-14.13.84-.65,6.05-4.54,6.79-5.08a504.63,504.63,0,0,1,45.15-28.89c9.48-5.46,27.62-13.3,32.89-14.23,4.37-.76,10.21-.55,13.46,2.35A7.71,7.71,0,0,1,320,82.17Z"/></svg>